{
  "accessors": [
    {
      "bufferView": 2,
      "componentType": 5126,
      "count": 4450,
      "max": [
        9.840620994567871,
        9.868308067321777,
        107.74263763427734
      ],
      "min": [
        -361.2548522949219,
        -9.807689666748047,
        -51.70618438720703
      ],
      "type": "VEC3"
    },
    {
      "bufferView": 2,
      "byteOffset": 53400,
      "componentType": 5126,
      "count": 4450,
      "max": [
        1.0,
        1.0,
        1.0
      ],
      "min": [
        -1.0,
        -1.0,
        -1.0
      ],
      "type": "VEC3"
    },
    {
      "bufferView": 1,
      "componentType": 5126,
      "count": 4450,
      "max": [
        0.11719536036252975,
        0.9834849834442139
      ],
      "min": [
        0.07618865370750427,
        0.6525770425796509
      ],
      "type": "VEC2"
    },
    {
      "bufferView": 0,
      "componentType": 5125,
      "count": 8184,
      "type": "SCALAR"
    },
    {
      "bufferView": 2,
      "byteOffset": 106800,
      "componentType": 5126,
      "count": 3473,
      "max": [
        -9.822296142578125,
        9.8682861328125,
        107.74264526367188
      ],
      "min": [
        -343.36505126953125,
        -9.807713508605957,
        76.15690612792969
      ],
      "type": "VEC3"
    },
    {
      "bufferView": 2,
      "byteOffset": 148476,
      "componentType": 5126,
      "count": 3473,
      "max": [
        1.0,
        1.0,
        1.0
      ],
      "min": [
        -1.0,
        -1.0,
        -1.0
      ],
      "type": "VEC3"
    },
    {
      "bufferView": 1,
      "byteOffset": 35600,
      "componentType": 5126,
      "count": 3473,
      "max": [
        0.8988767862319946,
        0.9803760647773743
      ],
      "min": [
        0.07671268284320831,
        0.6473938226699829
      ],
      "type": "VEC2"
    },
    {
      "bufferView": 0,
      "byteOffset": 32736,
      "componentType": 5125,
      "count": 4368,
      "type": "SCALAR"
    },
    {
      "bufferView": 2,
      "byteOffset": 190152,
      "componentType": 5126,
      "count": 120,
      "max": [
        -9.822250366210938,
        -9.816597938537598,
        107.74263763427734
      ],
      "min": [
        -341.5919494628906,
        -11.785103797912598,
        76.15691375732422
      ],
      "type": "VEC3"
    },
    {
      "bufferView": 2,
      "byteOffset": 191592,
      "componentType": 5126,
      "count": 120,
      "max": [
        1.0,
        1.0,
        1.0
      ],
      "min": [
        -1.0,
        -1.0,
        -1.0
      ],
      "type": "VEC3"
    },
    {
      "bufferView": 1,
      "byteOffset": 63384,
      "componentType": 5126,
      "count": 120,
      "max": [
        0.9333850741386414,
        0.3404393196105957
      ],
      "min": [
        0.6918769478797913,
        0.2454664707183838
      ],
      "type": "VEC2"
    },
    {
      "bufferView": 0,
      "byteOffset": 50208,
      "componentType": 5125,
      "count": 168,
      "type": "SCALAR"
    },
    {
      "bufferView": 2,
      "byteOffset": 193032,
      "componentType": 5126,
      "count": 12,
      "max": [
        -90.563232421875,
        9.907657623291016,
        105.7777328491211
      ],
      "min": [
        -260.85107421875,
        -9.847084045410156,
        78.12902069091797
      ],
      "type": "VEC3"
    },
    {
      "bufferView": 2,
      "byteOffset": 193176,
      "componentType": 5126,
      "count": 12,
      "max": [
        0.0,
        1.0,
        2.0695526359304495e-07
      ],
      "min": [
        0.0,
        -1.0,
        -4.139105271860899e-07
      ],
      "type": "VEC3"
    },
    {
      "bufferView": 1,
      "byteOffset": 64344,
      "componentType": 5126,
      "count": 12,
      "max": [
        0.9979999661445618,
        0.5776248574256897
      ],
      "min": [
        0.0020000000949949026,
        0.4157090187072754
      ],
      "type": "VEC2"
    },
    {
      "bufferView": 0,
      "byteOffset": 50880,
      "componentType": 5125,
      "count": 12,
      "type": "SCALAR"
    },
    {
      "bufferView": 2,
      "byteOffset": 193320,
      "componentType": 5126,
      "count": 4,
      "max": [
        -11.790817260742188,
        -10.840219497680664,
        105.77413177490234
      ],
      "min": [
        -88.59474182128906,
        -10.840221405029297,
        78.12541961669922
      ],
      "type": "VEC3"
    },
    {
      "bufferView": 2,
      "byteOffset": 193368,
      "componentType": 5126,
      "count": 4,
      "max": [
        0.0,
        -1.0,
        6.898508075892096e-08
      ],
      "min": [
        0.0,
        -1.0,
        6.898508075892096e-08
      ],
      "type": "VEC3"
    },
    {
      "bufferView": 1,
      "byteOffset": 64440,
      "componentType": 5126,
      "count": 4,
      "max": [
        0.9979999661445618,
        0.6705148220062256
      ],
      "min": [
        0.0020000000949949026,
        0.3119639456272125
      ],
      "type": "VEC2"
    },
    {
      "bufferView": 0,
      "byteOffset": 50928,
      "componentType": 5125,
      "count": 6,
      "type": "SCALAR"
    },
    {
      "bufferView": 2,
      "byteOffset": 193416,
      "componentType": 5126,
      "count": 4,
      "max": [
        -262.819580078125,
        -10.840219497680664,
        105.77413177490234
      ],
      "min": [
        -339.6235046386719,
        -10.840221405029297,
        78.12541961669922
      ],
      "type": "VEC3"
    },
    {
      "bufferView": 2,
      "byteOffset": 193464,
      "componentType": 5126,
      "count": 4,
      "max": [
        0.0,
        -1.0,
        6.898508075892096e-08
      ],
      "min": [
        0.0,
        -1.0,
        6.898508075892096e-08
      ],
      "type": "VEC3"
    },
    {
      "bufferView": 1,
      "byteOffset": 64472,
      "componentType": 5126,
      "count": 4,
      "max": [
        0.9979999661445618,
        0.6705148220062256
      ],
      "min": [
        0.0020000000949949026,
        0.3119639456272125
      ],
      "type": "VEC2"
    },
    {
      "bufferView": 0,
      "byteOffset": 50952,
      "componentType": 5125,
      "count": 6,
      "type": "SCALAR"
    }
  ],
  "asset": {
    "extras": {
      "author": "Anthony Yanez (https://sketchfab.com/paulyanez)",
      "license": "CC-BY-4.0 (http://creativecommons.org/licenses/by/4.0/)",
      "source": "https://sketchfab.com/3d-models/starting-line-ecb35b3e5b424f9dbf54174e6c5907de",
      "title": "Starting Line"
    },
    "generator": "Sketchfab-12.66.0",
    "version": "2.0"
  },
  "bufferViews": [
    {
      "buffer": 0,
      "byteLength": 50976,
      "name": "floatBufferViews",
      "target": 34963
    },
    {
      "buffer": 0,
      "byteLength": 64504,
      "byteOffset": 50976,
      "byteStride": 8,
      "name": "floatBufferViews",
      "target": 34962
    },
    {
      "buffer": 0,
      "byteLength": 193512,
      "byteOffset": 115480,
      "byteStride": 12,
      "name": "floatBufferViews",
      "target": 34962
    }
  ],
  "buffers": [
    {
      "byteLength": 308992,
      "uri": "scene.bin"
    }
  ],
  "images": [
    {
      "uri": "textures/Start_Texture_baseColor.png"
    },
    {
      "uri": "textures/Ad_2_baseColor.png"
    },
    {
      "uri": "textures/Ad_1_baseColor.png"
    }
  ],
  "materials": [
    {
      "doubleSided": true,
      "name": "Starting_Sign_Mat_1",
      "pbrMetallicRoughness": {
        "baseColorFactor": [
          0.0,
          0.0,
          0.258824,
          1.0
        ],
        "roughnessFactor": 0.33999999999999997
      }
    },
    {
      "doubleSided": true,
      "name": "Starting_Sign_Mat_2",
      "pbrMetallicRoughness": {
        "baseColorFactor": [
          0.321569,
          0.0,
          0.0,
          1.0
        ],
        "roughnessFactor": 0.33999999999999997
      }
    },
    {
      "doubleSided": true,
      "name": "Starting_Sign_Mat_3",
      "pbrMetallicRoughness": {
        "baseColorFactor": [
          0.0470588,
          0.0470588,
          0.0470588,
          1.0
        ],
        "roughnessFactor": 0.33999999999999997
      }
    },
    {
      "doubleSided": true,
      "name": "Start_Texture",
      "pbrMetallicRoughness": {
        "baseColorTexture": {
          "index": 0
        },
        "roughnessFactor": 0.8929713596
      }
    },
    {
      "doubleSided": true,
      "name": "Ad_2",
      "pbrMetallicRoughness": {
        "baseColorTexture": {
          "index": 1
        },
        "roughnessFactor": 0.8929713596
      }
    },
    {
      "doubleSided": true,
      "name": "Ad_1",
      "pbrMetallicRoughness": {
        "baseColorTexture": {
          "index": 2
        },
        "roughnessFactor": 0.8929713596
      }
    }
  ],
  "meshes": [
    {
      "name": "Starting Line_Starting Sign Mat 1_0",
      "primitives": [
        {
          "attributes": {
            "NORMAL": 1,
            "POSITION": 0,
            "TEXCOORD_0": 2
          },
          "indices": 3,
          "material": 0,
          "mode": 4
        }
      ]
    },
    {
      "name": "Starting Line_Starting Sign Mat 2_0",
      "primitives": [
        {
          "attributes": {
            "NORMAL": 5,
            "POSITION": 4,
            "TEXCOORD_0": 6
          },
          "indices": 7,
          "material": 1,
          "mode": 4
        }
      ]
    },
    {
      "name": "Starting Line_Starting Sign Mat 3_0",
      "primitives": [
        {
          "attributes": {
            "NORMAL": 9,
            "POSITION": 8,
            "TEXCOORD_0": 10
          },
          "indices": 11,
          "material": 2,
          "mode": 4
        }
      ]
    },
    {
      "name": "Starting Line_Start Texture_0",
      "primitives": [
        {
          "attributes": {
            "NORMAL": 13,
            "POSITION": 12,
            "TEXCOORD_0": 14
          },
          "indices": 15,
          "material": 3,
          "mode": 4
        }
      ]
    },
    {
      "name": "Starting Line_Ad 2_0",
      "primitives": [
        {
          "attributes": {
            "NORMAL": 17,
            "POSITION": 16,
            "TEXCOORD_0": 18
          },
          "indices": 19,
          "material": 4,
          "mode": 4
        }
      ]
    },
    {
      "name": "Starting Line_Ad 1_0",
      "primitives": [
        {
          "attributes": {
            "NORMAL": 21,
            "POSITION": 20,
            "TEXCOORD_0": 22
          },
          "indices": 23,
          "material": 5,
          "mode": 4
        }
      ]
    }
  ],
  "nodes": [
    {
      "children": [
        1
      ],
      "matrix": [
        1.0,
        0.0,
        0.0,
        0.0,
        0.0,
        2.220446049250313e-16,
        -1.0,
        0.0,
        0.0,
        1.0,
        2.220446049250313e-16,
        0.0,
        0.0,
        0.0,
        0.0,
        1.0
      ],
      "name": "Sketchfab_model"
    },
    {
      "children": [
        2
      ],
      "matrix": [
        1.0,
        0.0,
        0.0,
        0.0,
        0.0,
        0.0,
        1.0,
        0.0,
        0.0,
        -1.0,
        0.0,
        0.0,
        0.0,
        0.0,
        0.0,
        1.0
      ],
      "name": "starting_line.FBX"
    },
    {
      "children": [
        3
      ],
      "name": "RootNode"
    },
    {
      "children": [
        4
      ],
      "matrix": [
        1.0,
        0.0,
        0.0,
        0.0,
        0.0,
        3.894143673077721e-07,
        -0.9999999999999243,
        0.0,
        0.0,
        0.9999999999999243,
        3.894143673077721e-07,
        0.0,
        0.0,
        0.0,
        0.0,
        1.0
      ],
      "name": "Starting Line"
    },
    {
      "children": [
        5,
        6,
        7,
        8,
        9,
        10
      ],
      "matrix": [
        1.0,
        0.0,
        -0.0,
        0.0,
        0.0,
        1.0,
        0.0,
        0.0,
        0.0,
        0.0,
        1.0,
        0.0,
        175.7071075439453,
        0.9584212303161621,
        -28.018226623535156,
        1.0
      ],
      "name": "Object_4"
    },
    {
      "mesh": 0,
      "name": "Starting Line_Starting Sign Mat 1_0"
    },
    {
      "mesh": 1,
      "name": "Starting Line_Starting Sign Mat 2_0"
    },
    {
      "mesh": 2,
      "name": "Starting Line_Starting Sign Mat 3_0"
    },
    {
      "mesh": 3,
      "name": "Starting Line_Start Texture_0"
    },
    {
      "mesh": 4,
      "name": "Starting Line_Ad 2_0"
    },
    {
      "mesh": 5,
      "name": "Starting Line_Ad 1_0"
    }
  ],
  "samplers": [
    {
      "magFilter": 9729,
      "minFilter": 9987,
      "wrapS": 10497,
      "wrapT": 10497
    }
  ],
  "scene": 0,
  "scenes": [
    {
      "name": "Sketchfab_Scene",
      "nodes": [
        0
      ]
    }
  ],
  "textures": [
    {
      "sampler": 0,
      "source": 0
    },
    {
      "sampler": 0,
      "source": 1
    },
    {
      "sampler": 0,
      "source": 2
    }
  ]
}
